<svg width="20" height="20" viewBox="0 0 20 20" fill="none" xmlns="http://www.w3.org/2000/svg">
<path fill-rule="evenodd" clip-rule="evenodd" d="M10 20C15.5228 20 20 15.5228 20 10C20 4.47715 15.5228 0 10 0C4.47715 0 0 4.47715 0 10C0 15.5228 4.47715 20 10 20ZM3 5.4776V5H17V5.4776C17 5.82596 16.8187 6.1492 16.5215 6.33086L10.5215 9.99786C10.2014 10.1935 9.79865 10.1935 9.47852 9.99786L3.47852 6.33086C3.18128 6.1492 3 5.82595 3 5.4776ZM10.2957 11.1694L17 7.07194V15H3V7.07194L9.70435 11.1694C9.88585 11.2803 10.1142 11.2803 10.2957 11.1694Z" fill="white"/>
</svg>
